%TF.GenerationSoftware,KiCad,Pcbnew,(5.99.0-2281-g2f31bf278)*%
%TF.CreationDate,2020-08-06T03:29:56-04:00*%
%TF.ProjectId,Sinister,53696e69-7374-4657-922e-6b696361645f,rev?*%
%TF.SameCoordinates,Original*%
%TF.FileFunction,Soldermask,Top*%
%TF.FilePolarity,Negative*%
%FSLAX46Y46*%
G04 Gerber Fmt 4.6, Leading zero omitted, Abs format (unit mm)*
G04 Created by KiCad (PCBNEW (5.99.0-2281-g2f31bf278)) date 2020-08-06 03:29:56*
%MOMM*%
%LPD*%
G01*
G04 APERTURE LIST*
%ADD10C,3.987800*%
%ADD11C,3.048000*%
%ADD12C,1.701800*%
%ADD13C,2.540000*%
%ADD14C,1.778000*%
%ADD15C,0.889000*%
%ADD16O,1.524000X1.524000*%
%ADD17R,1.524000X1.524000*%
%ADD18O,1.100000X2.200000*%
%ADD19O,1.300000X1.900000*%
%ADD20C,0.650000*%
G04 APERTURE END LIST*
D10*
%TO.C,SW60*%
X305090449Y-98742500D03*
X281214449Y-98742500D03*
D11*
X281214449Y-83502500D03*
X305090449Y-83502500D03*
D12*
X288072449Y-90487500D03*
X298232449Y-90487500D03*
D13*
X290612449Y-95567500D03*
X296962449Y-93027500D03*
D10*
X293152449Y-90487500D03*
%TD*%
D12*
%TO.C,SW81*%
X469047449Y-109537500D03*
X479207449Y-109537500D03*
D13*
X471587449Y-114617500D03*
X477937449Y-112077500D03*
D10*
X474127449Y-109537500D03*
%TD*%
D14*
%TO.C,LED89*%
X244257449Y-70167500D03*
G36*
G01*
X245908449Y-70878700D02*
X245908449Y-69456300D01*
G75*
G02*
X246086249Y-69278500I177800J0D01*
G01*
X247508649Y-69278500D01*
G75*
G02*
X247686449Y-69456300I0J-177800D01*
G01*
X247686449Y-70878700D01*
G75*
G02*
X247508649Y-71056500I-177800J0D01*
G01*
X246086249Y-71056500D01*
G75*
G02*
X245908449Y-70878700I0J177800D01*
G01*
G37*
%TD*%
%TO.C,LED88*%
X244257449Y-60642500D03*
G36*
G01*
X245908449Y-61353700D02*
X245908449Y-59931300D01*
G75*
G02*
X246086249Y-59753500I177800J0D01*
G01*
X247508649Y-59753500D01*
G75*
G02*
X247686449Y-59931300I0J-177800D01*
G01*
X247686449Y-61353700D01*
G75*
G02*
X247508649Y-61531500I-177800J0D01*
G01*
X246086249Y-61531500D01*
G75*
G02*
X245908449Y-61353700I0J177800D01*
G01*
G37*
%TD*%
%TO.C,LED87*%
X244257449Y-51117500D03*
G36*
G01*
X245908449Y-51828700D02*
X245908449Y-50406300D01*
G75*
G02*
X246086249Y-50228500I177800J0D01*
G01*
X247508649Y-50228500D01*
G75*
G02*
X247686449Y-50406300I0J-177800D01*
G01*
X247686449Y-51828700D01*
G75*
G02*
X247508649Y-52006500I-177800J0D01*
G01*
X246086249Y-52006500D01*
G75*
G02*
X245908449Y-51828700I0J177800D01*
G01*
G37*
%TD*%
%TO.C,LED86*%
X244257449Y-41592500D03*
G36*
G01*
X245908449Y-42303700D02*
X245908449Y-40881300D01*
G75*
G02*
X246086249Y-40703500I177800J0D01*
G01*
X247508649Y-40703500D01*
G75*
G02*
X247686449Y-40881300I0J-177800D01*
G01*
X247686449Y-42303700D01*
G75*
G02*
X247508649Y-42481500I-177800J0D01*
G01*
X246086249Y-42481500D01*
G75*
G02*
X245908449Y-42303700I0J177800D01*
G01*
G37*
%TD*%
%TO.C,LED85*%
X244257449Y-32067500D03*
G36*
G01*
X245908449Y-32778700D02*
X245908449Y-31356300D01*
G75*
G02*
X246086249Y-31178500I177800J0D01*
G01*
X247508649Y-31178500D01*
G75*
G02*
X247686449Y-31356300I0J-177800D01*
G01*
X247686449Y-32778700D01*
G75*
G02*
X247508649Y-32956500I-177800J0D01*
G01*
X246086249Y-32956500D01*
G75*
G02*
X245908449Y-32778700I0J177800D01*
G01*
G37*
%TD*%
D10*
%TO.C,SW80*%
X352651949Y-117792500D03*
X452727949Y-117792500D03*
D11*
X452727949Y-102552500D03*
X352651949Y-102552500D03*
D12*
X397609949Y-109537500D03*
X407769949Y-109537500D03*
D13*
X400149949Y-114617500D03*
X406499949Y-112077500D03*
D10*
X402689949Y-109537500D03*
%TD*%
D13*
%TO.C,SW62*%
X346968699Y-93027500D03*
X340618699Y-95567500D03*
D12*
X338078699Y-90487500D03*
X348238699Y-90487500D03*
D10*
X343158699Y-90487500D03*
%TD*%
D12*
%TO.C,SW43*%
X283309949Y-71437500D03*
X293469949Y-71437500D03*
D13*
X285849949Y-76517500D03*
X292199949Y-73977500D03*
D10*
X288389949Y-71437500D03*
%TD*%
D15*
%TO.C,LED72*%
X175201199Y-94932500D03*
X177741199Y-94932500D03*
%TD*%
%TO.C,LED38*%
X175201199Y-56832500D03*
X177741199Y-56832500D03*
%TD*%
D10*
%TO.C,SW72*%
X184726199Y-88074500D03*
X184726199Y-111950500D03*
D11*
X169486199Y-111950500D03*
X169486199Y-88074500D03*
D12*
X171391199Y-100012500D03*
X181551199Y-100012500D03*
D13*
X173931199Y-105092500D03*
X180281199Y-102552500D03*
D10*
X176471199Y-100012500D03*
%TD*%
D13*
%TO.C,SW1*%
X180281199Y-35877500D03*
X173931199Y-38417500D03*
D12*
X171391199Y-33337500D03*
X181551199Y-33337500D03*
D10*
X176471199Y-33337500D03*
%TD*%
%TO.C,SW38*%
X184726199Y-49974500D03*
X184726199Y-73850500D03*
D11*
X169486199Y-73850500D03*
X169486199Y-49974500D03*
D12*
X171391199Y-61912500D03*
X181551199Y-61912500D03*
D13*
X173931199Y-66992500D03*
X180281199Y-64452500D03*
D10*
X176471199Y-61912500D03*
%TD*%
%TO.C,SW19*%
X526483199Y-41592500D03*
X550359199Y-41592500D03*
D11*
X550359199Y-26352500D03*
X526483199Y-26352500D03*
D12*
X533341199Y-33337500D03*
X543501199Y-33337500D03*
D13*
X535881199Y-38417500D03*
X542231199Y-35877500D03*
D10*
X538421199Y-33337500D03*
%TD*%
D12*
%TO.C,SW84*%
X540484949Y-109537500D03*
X550644949Y-109537500D03*
D13*
X543024949Y-114617500D03*
X549374949Y-112077500D03*
D10*
X545564949Y-109537500D03*
%TD*%
D12*
%TO.C,SW83*%
X516672449Y-109537500D03*
X526832449Y-109537500D03*
D13*
X519212449Y-114617500D03*
X525562449Y-112077500D03*
D10*
X521752449Y-109537500D03*
%TD*%
D12*
%TO.C,SW82*%
X492859949Y-109537500D03*
X503019949Y-109537500D03*
D13*
X495399949Y-114617500D03*
X501749949Y-112077500D03*
D10*
X497939949Y-109537500D03*
%TD*%
D12*
%TO.C,SW79*%
X326172449Y-109537500D03*
X336332449Y-109537500D03*
D13*
X328712449Y-114617500D03*
X335062449Y-112077500D03*
D10*
X331252449Y-109537500D03*
%TD*%
D12*
%TO.C,SW78*%
X299978699Y-109537500D03*
X310138699Y-109537500D03*
D13*
X302518699Y-114617500D03*
X308868699Y-112077500D03*
D10*
X305058699Y-109537500D03*
%TD*%
D13*
%TO.C,SW77*%
X280293699Y-116840000D03*
X273943699Y-119380000D03*
D12*
X271403699Y-114300000D03*
X281563699Y-114300000D03*
D10*
X276483699Y-114300000D03*
%TD*%
D13*
%TO.C,SW76*%
X261243699Y-116840000D03*
X254893699Y-119380000D03*
D12*
X252353699Y-114300000D03*
X262513699Y-114300000D03*
D10*
X257433699Y-114300000D03*
%TD*%
D13*
%TO.C,SW75*%
X242193699Y-116840000D03*
X235843699Y-119380000D03*
D12*
X233303699Y-114300000D03*
X243463699Y-114300000D03*
D10*
X238383699Y-114300000D03*
%TD*%
D13*
%TO.C,SW74*%
X218381199Y-112077500D03*
X212031199Y-114617500D03*
D12*
X209491199Y-109537500D03*
X219651199Y-109537500D03*
D10*
X214571199Y-109537500D03*
%TD*%
D13*
%TO.C,SW73*%
X199331199Y-112077500D03*
X192981199Y-114617500D03*
D12*
X190441199Y-109537500D03*
X200601199Y-109537500D03*
D10*
X195521199Y-109537500D03*
%TD*%
%TO.C,SW71*%
X543215449Y-98742500D03*
X519339449Y-98742500D03*
D11*
X519339449Y-83502500D03*
X543215449Y-83502500D03*
D12*
X526197449Y-90487500D03*
X536357449Y-90487500D03*
D13*
X528737449Y-95567500D03*
X535087449Y-93027500D03*
D10*
X531277449Y-90487500D03*
%TD*%
D13*
%TO.C,SW70*%
X499368699Y-93027500D03*
X493018699Y-95567500D03*
D12*
X490478699Y-90487500D03*
X500638699Y-90487500D03*
D10*
X495558699Y-90487500D03*
%TD*%
D13*
%TO.C,SW69*%
X480318699Y-93027500D03*
X473968699Y-95567500D03*
D12*
X471428699Y-90487500D03*
X481588699Y-90487500D03*
D10*
X476508699Y-90487500D03*
%TD*%
D13*
%TO.C,SW68*%
X461268699Y-93027500D03*
X454918699Y-95567500D03*
D12*
X452378699Y-90487500D03*
X462538699Y-90487500D03*
D10*
X457458699Y-90487500D03*
%TD*%
D13*
%TO.C,SW67*%
X442218699Y-93027500D03*
X435868699Y-95567500D03*
D12*
X433328699Y-90487500D03*
X443488699Y-90487500D03*
D10*
X438408699Y-90487500D03*
%TD*%
D13*
%TO.C,SW66*%
X423168699Y-93027500D03*
X416818699Y-95567500D03*
D12*
X414278699Y-90487500D03*
X424438699Y-90487500D03*
D10*
X419358699Y-90487500D03*
%TD*%
D13*
%TO.C,SW65*%
X404118699Y-93027500D03*
X397768699Y-95567500D03*
D12*
X395228699Y-90487500D03*
X405388699Y-90487500D03*
D10*
X400308699Y-90487500D03*
%TD*%
D13*
%TO.C,SW64*%
X385068699Y-93027500D03*
X378718699Y-95567500D03*
D12*
X376178699Y-90487500D03*
X386338699Y-90487500D03*
D10*
X381258699Y-90487500D03*
%TD*%
D13*
%TO.C,SW63*%
X366018699Y-93027500D03*
X359668699Y-95567500D03*
D12*
X357128699Y-90487500D03*
X367288699Y-90487500D03*
D10*
X362208699Y-90487500D03*
%TD*%
D13*
%TO.C,SW61*%
X327918699Y-93027500D03*
X321568699Y-95567500D03*
D12*
X319028699Y-90487500D03*
X329188699Y-90487500D03*
D10*
X324108699Y-90487500D03*
%TD*%
D13*
%TO.C,SW59*%
X261243699Y-97790000D03*
X254893699Y-100330000D03*
D12*
X252353699Y-95250000D03*
X262513699Y-95250000D03*
D10*
X257433699Y-95250000D03*
%TD*%
D13*
%TO.C,SW58*%
X237431199Y-93027500D03*
X231081199Y-95567500D03*
D12*
X228541199Y-90487500D03*
X238701199Y-90487500D03*
D10*
X233621199Y-90487500D03*
%TD*%
D13*
%TO.C,SW57*%
X218381199Y-93027500D03*
X212031199Y-95567500D03*
D12*
X209491199Y-90487500D03*
X219651199Y-90487500D03*
D10*
X214571199Y-90487500D03*
%TD*%
D13*
%TO.C,SW56*%
X199331199Y-93027500D03*
X192981199Y-95567500D03*
D12*
X190441199Y-90487500D03*
X200601199Y-90487500D03*
D10*
X195521199Y-90487500D03*
%TD*%
%TO.C,SW55*%
X524101949Y-63182500D03*
X547977949Y-63182500D03*
D11*
X547977949Y-78422500D03*
X524101949Y-78422500D03*
D12*
X530959949Y-71437500D03*
X541119949Y-71437500D03*
D13*
X533499949Y-76517500D03*
X539849949Y-73977500D03*
D10*
X536039949Y-71437500D03*
%TD*%
D13*
%TO.C,SW54*%
X508893699Y-73977500D03*
X502543699Y-76517500D03*
D12*
X500003699Y-71437500D03*
X510163699Y-71437500D03*
D10*
X505083699Y-71437500D03*
%TD*%
D13*
%TO.C,SW53*%
X489843699Y-73977500D03*
X483493699Y-76517500D03*
D12*
X480953699Y-71437500D03*
X491113699Y-71437500D03*
D10*
X486033699Y-71437500D03*
%TD*%
D13*
%TO.C,SW52*%
X470793699Y-73977500D03*
X464443699Y-76517500D03*
D12*
X461903699Y-71437500D03*
X472063699Y-71437500D03*
D10*
X466983699Y-71437500D03*
%TD*%
D13*
%TO.C,SW51*%
X451743699Y-73977500D03*
X445393699Y-76517500D03*
D12*
X442853699Y-71437500D03*
X453013699Y-71437500D03*
D10*
X447933699Y-71437500D03*
%TD*%
D13*
%TO.C,SW50*%
X432693699Y-73977500D03*
X426343699Y-76517500D03*
D12*
X423803699Y-71437500D03*
X433963699Y-71437500D03*
D10*
X428883699Y-71437500D03*
%TD*%
D13*
%TO.C,SW49*%
X413643699Y-73977500D03*
X407293699Y-76517500D03*
D12*
X404753699Y-71437500D03*
X414913699Y-71437500D03*
D10*
X409833699Y-71437500D03*
%TD*%
D13*
%TO.C,SW48*%
X394593699Y-73977500D03*
X388243699Y-76517500D03*
D12*
X385703699Y-71437500D03*
X395863699Y-71437500D03*
D10*
X390783699Y-71437500D03*
%TD*%
D13*
%TO.C,SW47*%
X375543699Y-73977500D03*
X369193699Y-76517500D03*
D12*
X366653699Y-71437500D03*
X376813699Y-71437500D03*
D10*
X371733699Y-71437500D03*
%TD*%
D13*
%TO.C,SW46*%
X356493699Y-73977500D03*
X350143699Y-76517500D03*
D12*
X347603699Y-71437500D03*
X357763699Y-71437500D03*
D10*
X352683699Y-71437500D03*
%TD*%
D13*
%TO.C,SW45*%
X337443699Y-73977500D03*
X331093699Y-76517500D03*
D12*
X328553699Y-71437500D03*
X338713699Y-71437500D03*
D10*
X333633699Y-71437500D03*
%TD*%
D13*
%TO.C,SW44*%
X318393699Y-73977500D03*
X312043699Y-76517500D03*
D12*
X309503699Y-71437500D03*
X319663699Y-71437500D03*
D10*
X314583699Y-71437500D03*
%TD*%
D13*
%TO.C,SW42*%
X261243699Y-73977500D03*
X254893699Y-76517500D03*
D12*
X252353699Y-71437500D03*
X262513699Y-71437500D03*
D10*
X257433699Y-71437500D03*
%TD*%
D13*
%TO.C,SW41*%
X237431199Y-73977500D03*
X231081199Y-76517500D03*
D12*
X228541199Y-71437500D03*
X238701199Y-71437500D03*
D10*
X233621199Y-71437500D03*
%TD*%
D13*
%TO.C,SW40*%
X218381199Y-73977500D03*
X212031199Y-76517500D03*
D12*
X209491199Y-71437500D03*
X219651199Y-71437500D03*
D10*
X214571199Y-71437500D03*
%TD*%
D13*
%TO.C,SW39*%
X199331199Y-73977500D03*
X192981199Y-76517500D03*
D12*
X190441199Y-71437500D03*
X200601199Y-71437500D03*
D10*
X195521199Y-71437500D03*
%TD*%
D12*
%TO.C,SW37*%
X538103699Y-52387500D03*
X548263699Y-52387500D03*
D13*
X540643699Y-57467500D03*
X546993699Y-54927500D03*
D10*
X543183699Y-52387500D03*
%TD*%
D13*
%TO.C,SW36*%
X523181199Y-54927500D03*
X516831199Y-57467500D03*
D12*
X514291199Y-52387500D03*
X524451199Y-52387500D03*
D10*
X519371199Y-52387500D03*
%TD*%
D13*
%TO.C,SW35*%
X504131199Y-54927500D03*
X497781199Y-57467500D03*
D12*
X495241199Y-52387500D03*
X505401199Y-52387500D03*
D10*
X500321199Y-52387500D03*
%TD*%
D13*
%TO.C,SW34*%
X485081199Y-54927500D03*
X478731199Y-57467500D03*
D12*
X476191199Y-52387500D03*
X486351199Y-52387500D03*
D10*
X481271199Y-52387500D03*
%TD*%
D13*
%TO.C,SW33*%
X466031199Y-54927500D03*
X459681199Y-57467500D03*
D12*
X457141199Y-52387500D03*
X467301199Y-52387500D03*
D10*
X462221199Y-52387500D03*
%TD*%
D13*
%TO.C,SW32*%
X446981199Y-54927500D03*
X440631199Y-57467500D03*
D12*
X438091199Y-52387500D03*
X448251199Y-52387500D03*
D10*
X443171199Y-52387500D03*
%TD*%
D13*
%TO.C,SW31*%
X427931199Y-54927500D03*
X421581199Y-57467500D03*
D12*
X419041199Y-52387500D03*
X429201199Y-52387500D03*
D10*
X424121199Y-52387500D03*
%TD*%
D13*
%TO.C,SW30*%
X408881199Y-54927500D03*
X402531199Y-57467500D03*
D12*
X399991199Y-52387500D03*
X410151199Y-52387500D03*
D10*
X405071199Y-52387500D03*
%TD*%
D13*
%TO.C,SW29*%
X389831199Y-54927500D03*
X383481199Y-57467500D03*
D12*
X380941199Y-52387500D03*
X391101199Y-52387500D03*
D10*
X386021199Y-52387500D03*
%TD*%
D13*
%TO.C,SW28*%
X370781199Y-54927500D03*
X364431199Y-57467500D03*
D12*
X361891199Y-52387500D03*
X372051199Y-52387500D03*
D10*
X366971199Y-52387500D03*
%TD*%
D13*
%TO.C,SW27*%
X351731199Y-54927500D03*
X345381199Y-57467500D03*
D12*
X342841199Y-52387500D03*
X353001199Y-52387500D03*
D10*
X347921199Y-52387500D03*
%TD*%
D13*
%TO.C,SW26*%
X332681199Y-54927500D03*
X326331199Y-57467500D03*
D12*
X323791199Y-52387500D03*
X333951199Y-52387500D03*
D10*
X328871199Y-52387500D03*
%TD*%
D13*
%TO.C,SW25*%
X313631199Y-54927500D03*
X307281199Y-57467500D03*
D12*
X304741199Y-52387500D03*
X314901199Y-52387500D03*
D10*
X309821199Y-52387500D03*
%TD*%
D12*
%TO.C,SW24*%
X280928699Y-52387500D03*
X291088699Y-52387500D03*
D13*
X283468699Y-57467500D03*
X289818699Y-54927500D03*
D10*
X286008699Y-52387500D03*
%TD*%
D13*
%TO.C,SW23*%
X261243699Y-54927500D03*
X254893699Y-57467500D03*
D12*
X252353699Y-52387500D03*
X262513699Y-52387500D03*
D10*
X257433699Y-52387500D03*
%TD*%
D13*
%TO.C,SW22*%
X237431199Y-54927500D03*
X231081199Y-57467500D03*
D12*
X228541199Y-52387500D03*
X238701199Y-52387500D03*
D10*
X233621199Y-52387500D03*
%TD*%
D13*
%TO.C,SW21*%
X218381199Y-54927500D03*
X212031199Y-57467500D03*
D12*
X209491199Y-52387500D03*
X219651199Y-52387500D03*
D10*
X214571199Y-52387500D03*
%TD*%
D13*
%TO.C,SW20*%
X199331199Y-54927500D03*
X192981199Y-57467500D03*
D12*
X190441199Y-52387500D03*
X200601199Y-52387500D03*
D10*
X195521199Y-52387500D03*
%TD*%
D13*
%TO.C,SW18*%
X513656199Y-35877500D03*
X507306199Y-38417500D03*
D12*
X504766199Y-33337500D03*
X514926199Y-33337500D03*
D10*
X509846199Y-33337500D03*
%TD*%
D13*
%TO.C,SW17*%
X494606199Y-35877500D03*
X488256199Y-38417500D03*
D12*
X485716199Y-33337500D03*
X495876199Y-33337500D03*
D10*
X490796199Y-33337500D03*
%TD*%
D13*
%TO.C,SW16*%
X475556199Y-35877500D03*
X469206199Y-38417500D03*
D12*
X466666199Y-33337500D03*
X476826199Y-33337500D03*
D10*
X471746199Y-33337500D03*
%TD*%
D13*
%TO.C,SW15*%
X456506199Y-35877500D03*
X450156199Y-38417500D03*
D12*
X447616199Y-33337500D03*
X457776199Y-33337500D03*
D10*
X452696199Y-33337500D03*
%TD*%
D13*
%TO.C,SW14*%
X437456199Y-35877500D03*
X431106199Y-38417500D03*
D12*
X428566199Y-33337500D03*
X438726199Y-33337500D03*
D10*
X433646199Y-33337500D03*
%TD*%
D13*
%TO.C,SW13*%
X418406199Y-35877500D03*
X412056199Y-38417500D03*
D12*
X409516199Y-33337500D03*
X419676199Y-33337500D03*
D10*
X414596199Y-33337500D03*
%TD*%
D13*
%TO.C,SW12*%
X399356199Y-35877500D03*
X393006199Y-38417500D03*
D12*
X390466199Y-33337500D03*
X400626199Y-33337500D03*
D10*
X395546199Y-33337500D03*
%TD*%
D13*
%TO.C,SW11*%
X380306199Y-35877500D03*
X373956199Y-38417500D03*
D12*
X371416199Y-33337500D03*
X381576199Y-33337500D03*
D10*
X376496199Y-33337500D03*
%TD*%
D13*
%TO.C,SW10*%
X361256199Y-35877500D03*
X354906199Y-38417500D03*
D12*
X352366199Y-33337500D03*
X362526199Y-33337500D03*
D10*
X357446199Y-33337500D03*
%TD*%
D13*
%TO.C,SW9*%
X342206199Y-35877500D03*
X335856199Y-38417500D03*
D12*
X333316199Y-33337500D03*
X343476199Y-33337500D03*
D10*
X338396199Y-33337500D03*
%TD*%
D13*
%TO.C,SW8*%
X323156199Y-35877500D03*
X316806199Y-38417500D03*
D12*
X314266199Y-33337500D03*
X324426199Y-33337500D03*
D10*
X319346199Y-33337500D03*
%TD*%
D13*
%TO.C,SW7*%
X304106199Y-35877500D03*
X297756199Y-38417500D03*
D12*
X295216199Y-33337500D03*
X305376199Y-33337500D03*
D10*
X300296199Y-33337500D03*
%TD*%
D13*
%TO.C,SW6*%
X285056199Y-35877500D03*
X278706199Y-38417500D03*
D12*
X276166199Y-33337500D03*
X286326199Y-33337500D03*
D10*
X281246199Y-33337500D03*
%TD*%
D13*
%TO.C,SW5*%
X261243699Y-35877500D03*
X254893699Y-38417500D03*
D12*
X252353699Y-33337500D03*
X262513699Y-33337500D03*
D10*
X257433699Y-33337500D03*
%TD*%
D13*
%TO.C,SW4*%
X237431199Y-35877500D03*
X231081199Y-38417500D03*
D12*
X228541199Y-33337500D03*
X238701199Y-33337500D03*
D10*
X233621199Y-33337500D03*
%TD*%
D13*
%TO.C,SW3*%
X218381199Y-35877500D03*
X212031199Y-38417500D03*
D12*
X209491199Y-33337500D03*
X219651199Y-33337500D03*
D10*
X214571199Y-33337500D03*
%TD*%
D13*
%TO.C,SW2*%
X199331199Y-35877500D03*
X192981199Y-38417500D03*
D12*
X190441199Y-33337500D03*
X200601199Y-33337500D03*
D10*
X195521199Y-33337500D03*
%TD*%
D15*
%TO.C,LED84*%
X544294949Y-104457500D03*
X546834949Y-104457500D03*
%TD*%
%TO.C,LED83*%
X520482449Y-104457500D03*
X523022449Y-104457500D03*
%TD*%
%TO.C,LED82*%
X496669949Y-104457500D03*
X499209949Y-104457500D03*
%TD*%
%TO.C,LED81*%
X472857449Y-104457500D03*
X475397449Y-104457500D03*
%TD*%
%TO.C,LED80*%
X401419949Y-104457500D03*
X403959949Y-104457500D03*
%TD*%
%TO.C,LED79*%
X329982449Y-104457500D03*
X332522449Y-104457500D03*
%TD*%
%TO.C,LED78*%
X303788699Y-104457500D03*
X306328699Y-104457500D03*
%TD*%
%TO.C,LED77*%
X275213699Y-109220000D03*
X277753699Y-109220000D03*
%TD*%
%TO.C,LED76*%
X256163699Y-109220000D03*
X258703699Y-109220000D03*
%TD*%
%TO.C,LED75*%
X237113699Y-109220000D03*
X239653699Y-109220000D03*
%TD*%
%TO.C,LED74*%
X213301199Y-104457500D03*
X215841199Y-104457500D03*
%TD*%
%TO.C,LED73*%
X194251199Y-104457500D03*
X196791199Y-104457500D03*
%TD*%
%TO.C,LED71*%
X530007449Y-85407500D03*
X532547449Y-85407500D03*
%TD*%
%TO.C,LED70*%
X494288699Y-85407500D03*
X496828699Y-85407500D03*
%TD*%
%TO.C,LED69*%
X475238699Y-85407500D03*
X477778699Y-85407500D03*
%TD*%
%TO.C,LED68*%
X456188699Y-85407500D03*
X458728699Y-85407500D03*
%TD*%
%TO.C,LED67*%
X437138699Y-85407500D03*
X439678699Y-85407500D03*
%TD*%
%TO.C,LED66*%
X418088699Y-85407500D03*
X420628699Y-85407500D03*
%TD*%
%TO.C,LED65*%
X399038699Y-85407500D03*
X401578699Y-85407500D03*
%TD*%
%TO.C,LED64*%
X379988699Y-85407500D03*
X382528699Y-85407500D03*
%TD*%
%TO.C,LED63*%
X360938699Y-85407500D03*
X363478699Y-85407500D03*
%TD*%
%TO.C,LED62*%
X341888699Y-85407500D03*
X344428699Y-85407500D03*
%TD*%
%TO.C,LED61*%
X322838699Y-85407500D03*
X325378699Y-85407500D03*
%TD*%
%TO.C,LED60*%
X291882449Y-85407500D03*
X294422449Y-85407500D03*
%TD*%
%TO.C,LED59*%
X256163699Y-90170000D03*
X258703699Y-90170000D03*
%TD*%
%TO.C,LED58*%
X232351199Y-85407500D03*
X234891199Y-85407500D03*
%TD*%
%TO.C,LED57*%
X213301199Y-85407500D03*
X215841199Y-85407500D03*
%TD*%
%TO.C,LED56*%
X194251199Y-85407500D03*
X196791199Y-85407500D03*
%TD*%
%TO.C,LED55*%
X534769949Y-66357500D03*
X537309949Y-66357500D03*
%TD*%
%TO.C,LED54*%
X503813699Y-66357500D03*
X506353699Y-66357500D03*
%TD*%
%TO.C,LED53*%
X484763699Y-66357500D03*
X487303699Y-66357500D03*
%TD*%
%TO.C,LED52*%
X465713699Y-66357500D03*
X468253699Y-66357500D03*
%TD*%
%TO.C,LED51*%
X446663699Y-66357500D03*
X449203699Y-66357500D03*
%TD*%
%TO.C,LED50*%
X427613699Y-66357500D03*
X430153699Y-66357500D03*
%TD*%
%TO.C,LED49*%
X408563699Y-66357500D03*
X411103699Y-66357500D03*
%TD*%
%TO.C,LED48*%
X389513699Y-66357500D03*
X392053699Y-66357500D03*
%TD*%
%TO.C,LED47*%
X370463699Y-66357500D03*
X373003699Y-66357500D03*
%TD*%
%TO.C,LED46*%
X351413699Y-66357500D03*
X353953699Y-66357500D03*
%TD*%
%TO.C,LED45*%
X332363699Y-66357500D03*
X334903699Y-66357500D03*
%TD*%
%TO.C,LED44*%
X313313699Y-66357500D03*
X315853699Y-66357500D03*
%TD*%
%TO.C,LED43*%
X287119949Y-66357500D03*
X289659949Y-66357500D03*
%TD*%
%TO.C,LED42*%
X256163699Y-66357500D03*
X258703699Y-66357500D03*
%TD*%
%TO.C,LED41*%
X232351199Y-66357500D03*
X234891199Y-66357500D03*
%TD*%
%TO.C,LED40*%
X213301199Y-66357500D03*
X215841199Y-66357500D03*
%TD*%
%TO.C,LED39*%
X194251199Y-66357500D03*
X196791199Y-66357500D03*
%TD*%
%TO.C,LED37*%
X541913699Y-47307500D03*
X544453699Y-47307500D03*
%TD*%
%TO.C,LED36*%
X518101199Y-47307500D03*
X520641199Y-47307500D03*
%TD*%
%TO.C,LED35*%
X499051199Y-47307500D03*
X501591199Y-47307500D03*
%TD*%
%TO.C,LED34*%
X480001199Y-47307500D03*
X482541199Y-47307500D03*
%TD*%
%TO.C,LED33*%
X460951199Y-47307500D03*
X463491199Y-47307500D03*
%TD*%
%TO.C,LED32*%
X441901199Y-47307500D03*
X444441199Y-47307500D03*
%TD*%
%TO.C,LED31*%
X422851199Y-47307500D03*
X425391199Y-47307500D03*
%TD*%
%TO.C,LED30*%
X403801199Y-47307500D03*
X406341199Y-47307500D03*
%TD*%
%TO.C,LED29*%
X384751199Y-47307500D03*
X387291199Y-47307500D03*
%TD*%
%TO.C,LED28*%
X365701199Y-47307500D03*
X368241199Y-47307500D03*
%TD*%
%TO.C,LED27*%
X346651199Y-47307500D03*
X349191199Y-47307500D03*
%TD*%
%TO.C,LED26*%
X327601199Y-47307500D03*
X330141199Y-47307500D03*
%TD*%
%TO.C,LED25*%
X308551199Y-47307500D03*
X311091199Y-47307500D03*
%TD*%
%TO.C,LED24*%
X284738699Y-47307500D03*
X287278699Y-47307500D03*
%TD*%
%TO.C,LED23*%
X256163699Y-47307500D03*
X258703699Y-47307500D03*
%TD*%
%TO.C,LED22*%
X232351199Y-47307500D03*
X234891199Y-47307500D03*
%TD*%
%TO.C,LED21*%
X213301199Y-47307500D03*
X215841199Y-47307500D03*
%TD*%
%TO.C,LED20*%
X194251199Y-47307500D03*
X196791199Y-47307500D03*
%TD*%
%TO.C,LED19*%
X537151199Y-28257500D03*
X539691199Y-28257500D03*
%TD*%
%TO.C,LED18*%
X508576199Y-28257500D03*
X511116199Y-28257500D03*
%TD*%
%TO.C,LED17*%
X489526199Y-28257500D03*
X492066199Y-28257500D03*
%TD*%
%TO.C,LED16*%
X470476199Y-28257500D03*
X473016199Y-28257500D03*
%TD*%
%TO.C,LED15*%
X451426199Y-28257500D03*
X453966199Y-28257500D03*
%TD*%
%TO.C,LED14*%
X432376199Y-28257500D03*
X434916199Y-28257500D03*
%TD*%
%TO.C,LED13*%
X413326199Y-28257500D03*
X415866199Y-28257500D03*
%TD*%
%TO.C,LED12*%
X394276199Y-28257500D03*
X396816199Y-28257500D03*
%TD*%
%TO.C,LED11*%
X375226199Y-28257500D03*
X377766199Y-28257500D03*
%TD*%
%TO.C,LED10*%
X356176199Y-28257500D03*
X358716199Y-28257500D03*
%TD*%
%TO.C,LED9*%
X337126199Y-28257500D03*
X339666199Y-28257500D03*
%TD*%
%TO.C,LED8*%
X318076199Y-28257500D03*
X320616199Y-28257500D03*
%TD*%
%TO.C,LED7*%
X299026199Y-28257500D03*
X301566199Y-28257500D03*
%TD*%
%TO.C,LED6*%
X279976199Y-28257500D03*
X282516199Y-28257500D03*
%TD*%
%TO.C,LED5*%
X256163699Y-28257500D03*
X258703699Y-28257500D03*
%TD*%
%TO.C,LED4*%
X232351199Y-28257500D03*
X234891199Y-28257500D03*
%TD*%
%TO.C,LED3*%
X213301199Y-28257500D03*
X215841199Y-28257500D03*
%TD*%
%TO.C,LED2*%
X194251199Y-28257500D03*
X196791199Y-28257500D03*
%TD*%
%TO.C,LED1*%
X175201199Y-28257500D03*
X177741199Y-28257500D03*
%TD*%
D16*
%TO.C,J2*%
X279119294Y-65904798D03*
X276579294Y-65904798D03*
X279246294Y-63364798D03*
X276706294Y-63364798D03*
X276579294Y-60824798D03*
X276706294Y-58284798D03*
X276579294Y-55744798D03*
D17*
X279119294Y-55744798D03*
D16*
X279246294Y-58284798D03*
X279119294Y-60824798D03*
%TD*%
D18*
%TO.C,J1*%
X273379599Y-22591900D03*
D19*
X273379599Y-18391900D03*
D20*
X271969599Y-22040900D03*
X266189599Y-22040900D03*
D19*
X264779599Y-18391900D03*
D18*
X264779599Y-22591900D03*
%TD*%
M02*
