M48
; DRILL file {KiCad (5.99.0-2281-g2f31bf278)} date 08/06/20 03:30:35
; FORMAT={-:-/ absolute / inch / decimal}
; #@! TF.CreationDate,2020-08-06T03:30:35-04:00
; #@! TF.GenerationSoftware,Kicad,Pcbnew,(5.99.0-2281-g2f31bf278)
; #@! TF.FileFunction,NonPlated,1,2,NPTH
FMAT,2
INCH
T1C0.0256
T2C0.0670
T3C0.1200
T4C0.1570
%
G90
G05
T1
X10.4799Y-0.8678
X10.7075Y-0.8678
T2
X19.6852Y-2.8125
X20.0852Y-2.8125
X21.2789Y-4.3125
X21.6789Y-4.3125
X12.3727Y-1.3125
X12.7727Y-1.3125
X20.7164Y-3.5625
X21.1164Y-3.5625
X16.1227Y-1.3125
X16.5227Y-1.3125
X9.9352Y-4.5
X10.3352Y-4.5
X20.3414Y-4.3125
X20.7414Y-4.3125
X11.0602Y-2.0625
X11.4602Y-2.0625
X17.0602Y-3.5625
X17.4602Y-3.5625
X20.2477Y-2.0625
X20.6477Y-2.0625
X12.5602Y-3.5625
X12.9602Y-3.5625
X16.4977Y-2.0625
X16.8977Y-2.0625
X9.9352Y-2.8125
X10.3352Y-2.8125
X7.4977Y-3.5625
X7.8977Y-3.5625
X8.2477Y-2.0625
X8.6477Y-2.0625
X18.7477Y-2.0625
X19.1477Y-2.0625
X19.4977Y-2.0625
X19.8977Y-2.0625
X17.4352Y-2.8125
X17.8352Y-2.8125
X6.7477Y-3.9375
X7.1477Y-3.9375
X17.6227Y-1.3125
X18.0227Y-1.3125
X7.4977Y-4.3125
X7.8977Y-4.3125
X14.8102Y-3.5625
X15.2102Y-3.5625
X14.6227Y-1.3125
X15.0227Y-1.3125
X9.1852Y-4.5
X9.5852Y-4.5
X9.9352Y-1.3125
X10.3352Y-1.3125
X6.7477Y-1.3125
X7.1477Y-1.3125
X9.9352Y-2.0625
X10.3352Y-2.0625
X15.6539Y-4.3125
X16.0539Y-4.3125
X18.5602Y-3.5625
X18.9602Y-3.5625
X7.4977Y-2.8125
X7.8977Y-2.8125
X8.2477Y-1.3125
X8.6477Y-1.3125
X15.7477Y-2.0625
X16.1477Y-2.0625
X15.1852Y-2.8125
X15.5852Y-2.8125
X18.1852Y-2.8125
X18.5852Y-2.8125
X18.3727Y-1.3125
X18.7727Y-1.3125
X14.2477Y-2.0625
X14.6477Y-2.0625
X15.9352Y-2.8125
X16.3352Y-2.8125
X8.9977Y-3.5625
X9.3977Y-3.5625
X6.7477Y-2.4375
X7.1477Y-2.4375
X19.1227Y-1.3125
X19.5227Y-1.3125
X16.3102Y-3.5625
X16.7102Y-3.5625
X18.9352Y-2.8125
X19.3352Y-2.8125
X13.8727Y-1.3125
X14.2727Y-1.3125
X19.3102Y-3.5625
X19.7102Y-3.5625
X7.4977Y-1.3125
X7.8977Y-1.3125
X12.8414Y-4.3125
X13.2414Y-4.3125
X8.9977Y-2.0625
X9.3977Y-2.0625
X13.3102Y-3.5625
X13.7102Y-3.5625
X15.5602Y-3.5625
X15.9602Y-3.5625
X21.1852Y-2.0625
X21.5852Y-2.0625
X11.9977Y-2.0625
X12.3977Y-2.0625
X8.9977Y-2.8125
X9.3977Y-2.8125
X11.6227Y-1.3125
X12.0227Y-1.3125
X14.0602Y-3.5625
X14.4602Y-3.5625
X16.8727Y-1.3125
X17.2727Y-1.3125
X13.4977Y-2.0625
X13.8977Y-2.0625
X13.6852Y-2.8125
X14.0852Y-2.8125
X8.2477Y-3.5625
X8.6477Y-3.5625
X19.8727Y-1.3125
X20.2727Y-1.3125
X8.2477Y-4.3125
X8.6477Y-4.3125
X20.9039Y-2.8125
X21.3039Y-2.8125
X20.9977Y-1.3125
X21.3977Y-1.3125
X15.3727Y-1.3125
X15.7727Y-1.3125
X11.8102Y-4.3125
X12.2102Y-4.3125
X10.8727Y-1.3125
X11.2727Y-1.3125
X19.4039Y-4.3125
X19.8039Y-4.3125
X17.9977Y-2.0625
X18.3977Y-2.0625
X11.1539Y-2.8125
X11.5539Y-2.8125
X10.6852Y-4.5
X11.0852Y-4.5
X12.9352Y-2.8125
X13.3352Y-2.8125
X17.2477Y-2.0625
X17.6477Y-2.0625
X8.2477Y-2.8125
X8.6477Y-2.8125
X8.9977Y-1.3125
X9.3977Y-1.3125
X16.6852Y-2.8125
X17.0852Y-2.8125
X7.4977Y-2.0625
X7.8977Y-2.0625
X12.7477Y-2.0625
X13.1477Y-2.0625
X12.1852Y-2.8125
X12.5852Y-2.8125
X9.9352Y-3.75
X10.3352Y-3.75
X13.1227Y-1.3125
X13.5227Y-1.3125
X18.4664Y-4.3125
X18.8664Y-4.3125
X14.9977Y-2.0625
X15.3977Y-2.0625
X11.3414Y-3.5625
X11.7414Y-3.5625
X17.8102Y-3.5625
X18.2102Y-3.5625
X14.4352Y-2.8125
X14.8352Y-2.8125
T3
X20.6339Y-3.0875
X21.5739Y-3.0875
X20.7277Y-1.0375
X21.6677Y-1.0375
X11.0714Y-3.2875
X12.0114Y-3.2875
X20.4464Y-3.2875
X21.3864Y-3.2875
X6.6727Y-3.4675
X6.6727Y-4.4075
X13.8839Y-4.0375
X17.8239Y-4.0375
X6.6727Y-1.9675
X6.6727Y-2.9075
T4
X6.9477Y-2.4375
X7.2727Y-1.9675
X7.2727Y-2.9075
X19.3227Y-1.3125
X16.5102Y-3.5625
X19.1352Y-2.8125
X14.0727Y-1.3125
X19.5102Y-3.5625
X7.6977Y-1.3125
X13.0414Y-4.3125
X9.1977Y-2.0625
X13.5102Y-3.5625
X15.7602Y-3.5625
X21.3852Y-2.0625
X12.1977Y-2.0625
X9.1977Y-2.8125
X11.8227Y-1.3125
X14.2602Y-3.5625
X17.0727Y-1.3125
X13.6977Y-2.0625
X13.8852Y-2.8125
X8.4477Y-3.5625
X20.0727Y-1.3125
X8.4477Y-4.3125
X20.6339Y-2.4875
X21.1039Y-2.8125
X21.5739Y-2.4875
X20.7277Y-1.6375
X21.1977Y-1.3125
X21.6677Y-1.6375
X15.5727Y-1.3125
X12.0102Y-4.3125
X11.0727Y-1.3125
X19.6039Y-4.3125
X18.1977Y-2.0625
X11.3539Y-2.8125
X10.8852Y-4.5
X13.1352Y-2.8125
X17.4477Y-2.0625
X8.4477Y-2.8125
X9.1977Y-1.3125
X16.8852Y-2.8125
X7.6977Y-2.0625
X12.9477Y-2.0625
X12.3852Y-2.8125
X10.1352Y-3.75
X13.3227Y-1.3125
X18.6664Y-4.3125
X15.1977Y-2.0625
X11.0714Y-3.8875
X11.5414Y-3.5625
X12.0114Y-3.8875
X18.0102Y-3.5625
X14.6352Y-2.8125
X19.8852Y-2.8125
X21.4789Y-4.3125
X12.5727Y-1.3125
X20.4464Y-3.8875
X20.9164Y-3.5625
X21.3864Y-3.8875
X16.3227Y-1.3125
X10.1352Y-4.5
X20.5414Y-4.3125
X11.2602Y-2.0625
X17.2602Y-3.5625
X20.4477Y-2.0625
X12.7602Y-3.5625
X16.6977Y-2.0625
X10.1352Y-2.8125
X7.6977Y-3.5625
X8.4477Y-2.0625
X18.9477Y-2.0625
X19.6977Y-2.0625
X17.6352Y-2.8125
X6.9477Y-3.9375
X7.2727Y-3.4675
X7.2727Y-4.4075
X17.8227Y-1.3125
X7.6977Y-4.3125
X15.0102Y-3.5625
X14.8227Y-1.3125
X9.3852Y-4.5
X10.1352Y-1.3125
X6.9477Y-1.3125
X10.1352Y-2.0625
X13.8839Y-4.6375
X15.8539Y-4.3125
X17.8239Y-4.6375
X18.7602Y-3.5625
X7.6977Y-2.8125
X8.4477Y-1.3125
X15.9477Y-2.0625
X15.3852Y-2.8125
X18.3852Y-2.8125
X18.5727Y-1.3125
X14.4477Y-2.0625
X16.1352Y-2.8125
X9.1977Y-3.5625
T0
M30
