M48
INCH
T1C0.0120
T2C0.0157
T3C0.0236
T4C0.0300
T5C0.0390
T6C0.0400
T7C0.0600
T8C0.0600
T9C0.0256
T10C0.0670
T11C0.1200
T12C0.1570
%
G90
G05
T1
X6.8476Y-4.2875
X7.9441Y-3.1773
X7.9441Y-2.3234
X8.01Y-2.617
X8.01Y-2.763
X8.1091Y-1.799
X8.1091Y-2.617
X8.131Y-4.2551
X8.1328Y-3.065
X8.136Y-1.624
X8.136Y-2.762
X8.2664Y-3.3067
X8.8394Y-4.6522
X8.8396Y-3.167
X8.8597Y-3.1468
X8.8614Y-4.6263
X9.7334Y-1.3875
X9.7334Y-1.5125
X9.7334Y-2.1375
X9.7334Y-2.8875
X9.7336Y-2.5125
X9.7414Y-3.2087
X9.7624Y-3.2281
X9.7825Y-3.2478
X9.8042Y-2.3442
X9.8227Y-2.3651
X10.3796Y-3.0696
X10.3796Y-2.683
X10.3857Y-1.2099
X10.3857Y-1.5715
X10.4034Y-2.6566
X10.4122Y-1.183
X10.4126Y-1.5446
X10.432Y-2.0834
X10.4484Y-3.2833
X10.4742Y-1.172
X10.4977Y-0.9698
X10.5014Y-4.2555
X10.5134Y-2.7545
X10.5194Y-3.5157
X10.5247Y-2.9225
X10.5446Y-1.0799
X10.5509Y-2.3651
X10.5695Y-2.3442
X10.5696Y-3.3517
X10.5704Y-2.8655
X10.5746Y-1.0789
X10.5844Y-1.1202
X10.5893Y-3.3714
X10.609Y-2.8655
X10.609Y-3.3913
X10.6147Y-1.1195
X10.6301Y-2.7367
X10.6301Y-2.3234
X10.6507Y-2.7561
X10.6692Y-3.2449
X10.6706Y-2.7757
X10.6719Y-1.933
X10.6889Y-3.3827
X10.6895Y-4.183
X10.6902Y-2.7955
X10.6907Y-0.9698
X10.7074Y-2.8843
X10.7281Y-2.8656
X10.7485Y-2.8466
X10.7694Y-3.1675
X10.7694Y-3.0895
X10.7947Y-1.1835
X10.7948Y-1.5446
X10.8217Y-1.2099
X10.8217Y-1.5715
X10.8417Y-3.328
X10.8484Y-2.0077
X10.8486Y-1.4567
X10.8486Y-1.7996
X10.8534Y-2.1067
X10.8894Y-2.6566
X10.8947Y-2.9885
X10.9984Y-3.5237
X11.1404Y-3.7304
X11.1904Y-3.2905
X11.3774Y-4.3995
X11.3962Y-4.3784
X11.4146Y-4.3575
X11.7024Y-4.5955
X11.8064Y-4.5745
X12.2544Y-3.2885
X12.3164Y-4.6162
X14.1254Y-4.2545
X14.9083Y-3.2303
X15.6583Y-3.2165
X16.1444Y-4.2555
X16.4083Y-3.2026
X17.9524Y-4.2555
X19.8974Y-4.2555
X20.1549Y-1.742
X20.2497Y-3.0565
X20.2497Y-3.9375
X20.4347Y-2.763
X20.536Y-2.8389
T2
X20.059Y-1.751
T4
X10.8889Y-2.1947
X10.8889Y-2.3947
X10.8889Y-2.5947
X10.8939Y-2.2947
X10.8939Y-2.4947
X10.9889Y-2.1947
X10.9889Y-2.3947
X10.9889Y-2.5947
X10.9939Y-2.2947
X10.9939Y-2.4947
T5
X6.9977Y-1.1125
X13.1852Y-2.6125
X10.1852Y-1.1125
X11.8727Y-1.1125
X13.0914Y-4.1125
X14.8727Y-1.1125
X11.5914Y-3.3625
X18.7164Y-4.1125
X11.1227Y-1.1125
X15.8102Y-3.3625
X16.3727Y-1.1125
X11.3102Y-1.8625
X15.4352Y-2.6125
X11.4039Y-2.6125
X9.2477Y-1.8625
X15.0602Y-3.3625
X21.1539Y-2.6125
X6.9977Y-3.7375
X19.5602Y-3.3625
X7.7477Y-1.8625
X7.7477Y-3.3625
X9.7164Y-2.7625
X12.9977Y-1.8625
X9.2477Y-2.6125
X19.6539Y-4.1125
X18.9977Y-1.8625
X9.7164Y-2.0125
X15.9039Y-4.1125
X13.3727Y-1.1125
X7.7477Y-2.6125
X12.4352Y-2.6125
X9.7164Y-2.3875
X9.7164Y-1.6375
X20.5914Y-4.1125
X9.7164Y-1.2625
X10.1852Y-3.55
X16.9352Y-2.6125
X7.7477Y-1.1125
X18.8102Y-3.3625
X8.4977Y-3.3625
X15.2477Y-1.8625
X10.9352Y-4.3
X8.4977Y-4.1125
X17.6852Y-2.6125
X20.4977Y-1.8625
X9.2477Y-3.3625
X20.9664Y-3.3625
X13.9352Y-2.6125
X16.1852Y-2.6125
X16.7477Y-1.8625
X21.5289Y-4.1125
X17.8727Y-1.1125
X12.0602Y-4.1125
X21.2477Y-1.1125
X16.5602Y-3.3625
X7.7477Y-4.1125
X19.9352Y-2.6125
X17.1227Y-1.1125
X8.4977Y-1.8625
X12.6227Y-1.1125
X9.2477Y-1.1125
X12.2477Y-1.8625
X18.6227Y-1.1125
X18.0602Y-3.3625
X17.3102Y-3.3625
X13.7477Y-1.8625
X18.4352Y-2.6125
X18.2477Y-1.8625
X14.1227Y-1.1125
X13.5602Y-3.3625
X10.1852Y-4.3
X14.6852Y-2.6125
X14.3102Y-3.3625
X12.8102Y-3.3625
X19.1852Y-2.6125
X19.3727Y-1.1125
X19.7477Y-1.8625
X17.4977Y-1.8625
X15.9977Y-1.8625
X14.4977Y-1.8625
X15.6227Y-1.1125
X8.4977Y-1.1125
X6.9977Y-2.2375
X21.4352Y-1.8625
X9.4352Y-4.3
X8.4977Y-2.6125
X20.1227Y-1.1125
X10.1852Y-1.8625
X10.1852Y-2.6125
T6
X21.3352Y-1.8625
X9.3352Y-4.3
X8.3977Y-2.6125
X20.0227Y-1.1125
X10.0852Y-1.8625
X10.0852Y-2.6125
X6.8977Y-1.1125
X13.0852Y-2.6125
X10.0852Y-1.1125
X11.7727Y-1.1125
X12.9914Y-4.1125
X14.7727Y-1.1125
X11.4914Y-3.3625
X18.6164Y-4.1125
X11.0227Y-1.1125
X15.7102Y-3.3625
X16.2727Y-1.1125
X11.2102Y-1.8625
X15.3352Y-2.6125
X11.3039Y-2.6125
X9.1477Y-1.8625
X14.9602Y-3.3625
X21.0539Y-2.6125
X6.8977Y-3.7375
X19.4602Y-3.3625
X7.6477Y-1.8625
X7.6477Y-3.3625
X9.6164Y-2.7625
X12.8977Y-1.8625
X9.1477Y-2.6125
X19.5539Y-4.1125
X18.8977Y-1.8625
X9.6164Y-2.0125
X15.8039Y-4.1125
X13.2727Y-1.1125
X7.6477Y-2.6125
X12.3352Y-2.6125
X9.6164Y-2.3875
X9.6164Y-1.6375
X20.4914Y-4.1125
X9.6164Y-1.2625
X10.0852Y-3.55
X16.8352Y-2.6125
X7.6477Y-1.1125
X18.7102Y-3.3625
X8.3977Y-3.3625
X15.1477Y-1.8625
X10.8352Y-4.3
X8.3977Y-4.1125
X17.5852Y-2.6125
X20.3977Y-1.8625
X9.1477Y-3.3625
X20.8664Y-3.3625
X13.8352Y-2.6125
X16.0852Y-2.6125
X16.6477Y-1.8625
X21.4289Y-4.1125
X17.7727Y-1.1125
X11.9602Y-4.1125
X21.1477Y-1.1125
X16.4602Y-3.3625
X7.6477Y-4.1125
X19.8352Y-2.6125
X17.0227Y-1.1125
X8.3977Y-1.8625
X12.5227Y-1.1125
X9.1477Y-1.1125
X12.1477Y-1.8625
X18.5227Y-1.1125
X17.9602Y-3.3625
X17.2102Y-3.3625
X13.6477Y-1.8625
X18.3352Y-2.6125
X18.1477Y-1.8625
X14.0227Y-1.1125
X13.4602Y-3.3625
X10.0852Y-4.3
X14.5852Y-2.6125
X14.2102Y-3.3625
X12.7102Y-3.3625
X19.0852Y-2.6125
X19.2727Y-1.1125
X19.6477Y-1.8625
X17.3977Y-1.8625
X15.8977Y-1.8625
X14.3977Y-1.8625
X15.5227Y-1.1125
X8.3977Y-1.1125
X6.8977Y-2.2375
T7
X20.4414Y-4.5125
X20.6914Y-4.4125
X21.0039Y-3.0125
X21.2539Y-2.9125
X12.9414Y-4.5125
X13.1914Y-4.4125
X20.8164Y-3.7625
X21.0664Y-3.6625
X19.5039Y-4.5125
X19.7539Y-4.4125
X11.9102Y-4.5125
X12.1602Y-4.4125
X11.2539Y-3.0125
X11.5039Y-2.9125
X6.8477Y-4.1375
X7.0977Y-4.0375
X21.2852Y-2.2625
X21.5352Y-2.1625
X11.4414Y-3.7625
X11.6914Y-3.6625
X11.1602Y-2.2625
X11.4102Y-2.1625
X21.3789Y-4.5125
X21.6289Y-4.4125
X6.8477Y-2.6375
X7.0977Y-2.5375
X21.0977Y-1.5125
X21.3477Y-1.4125
X18.5664Y-4.5125
X18.8164Y-4.4125
X15.7539Y-4.5125
X16.0039Y-4.4125
T8
X10.0352Y-1.5125
X10.2852Y-1.4125
X13.0352Y-3.0125
X13.2852Y-2.9125
X13.9727Y-1.5125
X14.2227Y-1.4125
X20.3477Y-2.2625
X20.5977Y-2.1625
X15.8477Y-2.2625
X16.0977Y-2.1625
X17.1602Y-3.7625
X17.4102Y-3.6625
X8.3477Y-3.7625
X8.5977Y-3.6625
X17.3477Y-2.2625
X17.5977Y-2.1625
X18.6602Y-3.7625
X18.9102Y-3.6625
X7.5977Y-3.7625
X7.8477Y-3.6625
X9.0977Y-1.5125
X9.3477Y-1.4125
X15.0977Y-2.2625
X15.3477Y-2.1625
X18.8477Y-2.2625
X19.0977Y-2.1625
X19.0352Y-3.0125
X19.2852Y-2.9125
X9.0977Y-2.2625
X9.3477Y-2.1625
X9.0977Y-3.7625
X9.3477Y-3.6625
X16.7852Y-3.0125
X17.0352Y-2.9125
X12.4727Y-1.5125
X12.7227Y-1.4125
X9.2852Y-4.7
X9.5352Y-4.6
X15.6602Y-3.7625
X15.9102Y-3.6625
X18.4727Y-1.5125
X18.7227Y-1.4125
X16.2227Y-1.5125
X16.4727Y-1.4125
X18.0977Y-2.2625
X18.3477Y-2.1625
X9.0977Y-3.0125
X9.3477Y-2.9125
X16.0352Y-3.0125
X16.2852Y-2.9125
X7.5977Y-2.2625
X7.8477Y-2.1625
X8.3477Y-1.5125
X8.5977Y-1.4125
X13.7852Y-3.0125
X14.0352Y-2.9125
X13.2227Y-1.5125
X13.4727Y-1.4125
X15.4727Y-1.5125
X15.7227Y-1.4125
X12.6602Y-3.7625
X12.9102Y-3.6625
X14.9102Y-3.7625
X15.1602Y-3.6625
X19.9727Y-1.5125
X20.2227Y-1.4125
X14.5352Y-3.0125
X14.7852Y-2.9125
X7.5977Y-3.0125
X7.8477Y-2.9125
X10.0352Y-2.2625
X10.2852Y-2.1625
X13.4102Y-3.7625
X13.6602Y-3.6625
X8.3477Y-3.0125
X8.5977Y-2.9125
X13.5977Y-2.2625
X13.8477Y-2.1625
X15.2852Y-3.0125
X15.5352Y-2.9125
X18.2852Y-3.0125
X18.5352Y-2.9125
X12.2852Y-3.0125
X12.5352Y-2.9125
X12.0977Y-2.2625
X12.3477Y-2.1625
X16.4102Y-3.7625
X16.6602Y-3.6625
X7.5977Y-1.5125
X7.8477Y-1.4125
X17.7227Y-1.5125
X17.9727Y-1.4125
X7.5977Y-4.5125
X7.8477Y-4.4125
X10.9727Y-1.5125
X11.2227Y-1.4125
X10.0352Y-4.7
X10.2852Y-4.6
X10.0352Y-3.95
X10.2852Y-3.85
X12.8477Y-2.2625
X13.0977Y-2.1625
X19.4102Y-3.7625
X19.6602Y-3.6625
X14.1602Y-3.7625
X14.4102Y-3.6625
X19.7852Y-3.0125
X20.0352Y-2.9125
X14.3477Y-2.2625
X14.5977Y-2.1625
X16.9727Y-1.5125
X17.2227Y-1.4125
X17.9102Y-3.7625
X18.1602Y-3.6625
X14.7227Y-1.5125
X14.9727Y-1.4125
X16.5977Y-2.2625
X16.8477Y-2.1625
X8.3477Y-2.2625
X8.5977Y-2.1625
X19.5977Y-2.2625
X19.8477Y-2.1625
X19.2227Y-1.5125
X19.4727Y-1.4125
X6.8477Y-1.5125
X7.0977Y-1.4125
X11.7227Y-1.5125
X11.9727Y-1.4125
X8.3477Y-4.5125
X8.5977Y-4.4125
X10.0352Y-3.0125
X10.2852Y-2.9125
X10.7852Y-4.7
X11.0352Y-4.6
X17.5352Y-3.0125
X17.7852Y-2.9125
T9
X10.4799Y-0.8678
X10.7075Y-0.8678
T10
X11.0602Y-2.0625
X11.4602Y-2.0625
X21.2789Y-4.3125
X21.6789Y-4.3125
X14.4352Y-2.8125
X14.8352Y-2.8125
X7.4977Y-2.8125
X7.8977Y-2.8125
X9.9352Y-2.0625
X10.3352Y-2.0625
X13.3102Y-3.5625
X13.7102Y-3.5625
X8.2477Y-2.8125
X8.6477Y-2.8125
X13.4977Y-2.0625
X13.8977Y-2.0625
X15.1852Y-2.8125
X15.5852Y-2.8125
X6.7477Y-2.4375
X7.1477Y-2.4375
X18.1852Y-2.8125
X18.5852Y-2.8125
X12.1852Y-2.8125
X12.5852Y-2.8125
X11.9977Y-2.0625
X12.3977Y-2.0625
X16.3102Y-3.5625
X16.7102Y-3.5625
X7.4977Y-1.3125
X7.8977Y-1.3125
X17.6227Y-1.3125
X18.0227Y-1.3125
X7.4977Y-4.3125
X7.8977Y-4.3125
X20.9977Y-1.3125
X21.3977Y-1.3125
X10.8727Y-1.3125
X11.2727Y-1.3125
X9.9352Y-4.5
X10.3352Y-4.5
X9.9352Y-3.75
X10.3352Y-3.75
X18.4664Y-4.3125
X18.8664Y-4.3125
X15.6539Y-4.3125
X16.0539Y-4.3125
X12.7477Y-2.0625
X13.1477Y-2.0625
X19.3102Y-3.5625
X19.7102Y-3.5625
X14.0602Y-3.5625
X14.4602Y-3.5625
X19.6852Y-2.8125
X20.0852Y-2.8125
X14.2477Y-2.0625
X14.6477Y-2.0625
X16.8727Y-1.3125
X17.2727Y-1.3125
X17.8102Y-3.5625
X18.2102Y-3.5625
X14.6227Y-1.3125
X15.0227Y-1.3125
X16.4977Y-2.0625
X16.8977Y-2.0625
X8.2477Y-2.0625
X8.6477Y-2.0625
X19.4977Y-2.0625
X19.8977Y-2.0625
X19.1227Y-1.3125
X19.5227Y-1.3125
X6.7477Y-1.3125
X7.1477Y-1.3125
X20.3414Y-4.3125
X20.7414Y-4.3125
X11.6227Y-1.3125
X12.0227Y-1.3125
X8.2477Y-4.3125
X8.6477Y-4.3125
X9.9352Y-2.8125
X10.3352Y-2.8125
X10.6852Y-4.5
X11.0852Y-4.5
X17.4352Y-2.8125
X17.8352Y-2.8125
X20.9039Y-2.8125
X21.3039Y-2.8125
X9.9352Y-1.3125
X10.3352Y-1.3125
X12.9352Y-2.8125
X13.3352Y-2.8125
X13.8727Y-1.3125
X14.2727Y-1.3125
X12.8414Y-4.3125
X13.2414Y-4.3125
X20.2477Y-2.0625
X20.6477Y-2.0625
X15.7477Y-2.0625
X16.1477Y-2.0625
X17.0602Y-3.5625
X17.4602Y-3.5625
X8.2477Y-3.5625
X8.6477Y-3.5625
X17.2477Y-2.0625
X17.6477Y-2.0625
X20.7164Y-3.5625
X21.1164Y-3.5625
X19.4039Y-4.3125
X19.8039Y-4.3125
X18.5602Y-3.5625
X18.9602Y-3.5625
X7.4977Y-3.5625
X7.8977Y-3.5625
X8.9977Y-1.3125
X9.3977Y-1.3125
X14.9977Y-2.0625
X15.3977Y-2.0625
X18.7477Y-2.0625
X19.1477Y-2.0625
X18.9352Y-2.8125
X19.3352Y-2.8125
X8.9977Y-2.0625
X9.3977Y-2.0625
X8.9977Y-3.5625
X9.3977Y-3.5625
X16.6852Y-2.8125
X17.0852Y-2.8125
X11.8102Y-4.3125
X12.2102Y-4.3125
X12.3727Y-1.3125
X12.7727Y-1.3125
X9.1852Y-4.5
X9.5852Y-4.5
X15.5602Y-3.5625
X15.9602Y-3.5625
X18.3727Y-1.3125
X18.7727Y-1.3125
X16.1227Y-1.3125
X16.5227Y-1.3125
X17.9977Y-2.0625
X18.3977Y-2.0625
X8.9977Y-2.8125
X9.3977Y-2.8125
X15.9352Y-2.8125
X16.3352Y-2.8125
X11.1539Y-2.8125
X11.5539Y-2.8125
X6.7477Y-3.9375
X7.1477Y-3.9375
X7.4977Y-2.0625
X7.8977Y-2.0625
X8.2477Y-1.3125
X8.6477Y-1.3125
X21.1852Y-2.0625
X21.5852Y-2.0625
X13.6852Y-2.8125
X14.0852Y-2.8125
X13.1227Y-1.3125
X13.5227Y-1.3125
X15.3727Y-1.3125
X15.7727Y-1.3125
X12.5602Y-3.5625
X12.9602Y-3.5625
X11.3414Y-3.5625
X11.7414Y-3.5625
X14.8102Y-3.5625
X15.2102Y-3.5625
X19.8727Y-1.3125
X20.2727Y-1.3125
T11
X20.4464Y-3.2875
X21.3864Y-3.2875
X6.6727Y-3.4675
X6.6727Y-4.4075
X11.0714Y-3.2875
X12.0114Y-3.2875
X6.6727Y-1.9675
X6.6727Y-2.9075
X20.7277Y-1.0375
X21.6677Y-1.0375
X13.8839Y-4.0375
X17.8239Y-4.0375
X20.6339Y-3.0875
X21.5739Y-3.0875
T12
X14.4477Y-2.0625
X17.0727Y-1.3125
X18.0102Y-3.5625
X14.8227Y-1.3125
X16.6977Y-2.0625
X8.4477Y-2.0625
X19.6977Y-2.0625
X19.3227Y-1.3125
X6.9477Y-1.3125
X20.5414Y-4.3125
X11.8227Y-1.3125
X8.4477Y-4.3125
X10.1352Y-2.8125
X10.8852Y-4.5
X17.6352Y-2.8125
X20.6339Y-2.4875
X21.1039Y-2.8125
X21.5739Y-2.4875
X10.1352Y-1.3125
X13.1352Y-2.8125
X14.0727Y-1.3125
X13.0414Y-4.3125
X20.4477Y-2.0625
X15.9477Y-2.0625
X17.2602Y-3.5625
X8.4477Y-3.5625
X17.4477Y-2.0625
X20.4464Y-3.8875
X20.9164Y-3.5625
X21.3864Y-3.8875
X19.6039Y-4.3125
X18.7602Y-3.5625
X7.6977Y-3.5625
X9.1977Y-1.3125
X15.1977Y-2.0625
X18.9477Y-2.0625
X19.1352Y-2.8125
X9.1977Y-2.0625
X9.1977Y-3.5625
X16.8852Y-2.8125
X12.0102Y-4.3125
X12.5727Y-1.3125
X9.3852Y-4.5
X15.7602Y-3.5625
X18.5727Y-1.3125
X16.3227Y-1.3125
X18.1977Y-2.0625
X9.1977Y-2.8125
X16.1352Y-2.8125
X11.3539Y-2.8125
X6.9477Y-3.9375
X7.2727Y-3.4675
X7.2727Y-4.4075
X7.6977Y-2.0625
X8.4477Y-1.3125
X21.3852Y-2.0625
X13.8852Y-2.8125
X13.3227Y-1.3125
X15.5727Y-1.3125
X12.7602Y-3.5625
X11.0714Y-3.8875
X11.5414Y-3.5625
X12.0114Y-3.8875
X15.0102Y-3.5625
X20.0727Y-1.3125
X11.2602Y-2.0625
X21.4789Y-4.3125
X14.6352Y-2.8125
X7.6977Y-2.8125
X10.1352Y-2.0625
X13.5102Y-3.5625
X8.4477Y-2.8125
X13.6977Y-2.0625
X15.3852Y-2.8125
X6.9477Y-2.4375
X7.2727Y-1.9675
X7.2727Y-2.9075
X18.3852Y-2.8125
X12.3852Y-2.8125
X12.1977Y-2.0625
X16.5102Y-3.5625
X7.6977Y-1.3125
X17.8227Y-1.3125
X7.6977Y-4.3125
X20.7277Y-1.6375
X21.1977Y-1.3125
X21.6677Y-1.6375
X11.0727Y-1.3125
X10.1352Y-4.5
X10.1352Y-3.75
X18.6664Y-4.3125
X13.8839Y-4.6375
X15.8539Y-4.3125
X17.8239Y-4.6375
X12.9477Y-2.0625
X19.5102Y-3.5625
X14.2602Y-3.5625
X19.8852Y-2.8125
T3
G00X10.4244Y-0.7123
M15
G01X10.4244Y-0.7359
M16
G05
G00X10.4244Y-0.8678
M15
G01X10.4244Y-0.9111
M16
G05
G00X10.763Y-0.7123
M15
G01X10.763Y-0.7359
M16
G05
G00X10.763Y-0.8678
M15
G01X10.763Y-0.9111
M16
G05
T0
M30
